<svg width="17" height="16" viewBox="0 0 17 16" fill="none" xmlns="http://www.w3.org/2000/svg">
<g clip-path="url(#clip0_1_1456)">
<path d="M6.50016 14.6673C6.86835 14.6673 7.16683 14.3688 7.16683 14.0007C7.16683 13.6325 6.86835 13.334 6.50016 13.334C6.13197 13.334 5.8335 13.6325 5.8335 14.0007C5.8335 14.3688 6.13197 14.6673 6.50016 14.6673Z" fill="white" stroke="white" stroke-linecap="round" stroke-linejoin="round"/>
<path d="M13.8332 14.6673C14.2014 14.6673 14.4998 14.3688 14.4998 14.0007C14.4998 13.6325 14.2014 13.334 13.8332 13.334C13.465 13.334 13.1665 13.6325 13.1665 14.0007C13.1665 14.3688 13.465 14.6673 13.8332 14.6673Z" fill="white" stroke="white" stroke-linecap="round" stroke-linejoin="round"/>
<path d="M1.1665 0.666016H3.83317L5.61984 9.59268C5.6808 9.89961 5.84778 10.1753 6.09153 10.3715C6.33529 10.5678 6.6403 10.672 6.95317 10.666H13.4332C13.746 10.672 14.051 10.5678 14.2948 10.3715C14.5386 10.1753 14.7055 9.89961 14.7665 9.59268L15.8332 3.99935H4.49984" stroke="white" stroke-linecap="round" stroke-linejoin="round"/>
</g>
<defs>
<clipPath id="clip0_1_1456">
<rect width="16" height="16" fill="white" transform="translate(0.5)"/>
</clipPath>
</defs>
</svg>
